<svg width="24" height="24" viewBox="0 0 24 24" fill="none" xmlns="http://www.w3.org/2000/svg">
<path d="M7.83333 7C8.6004 7 9.22222 7.62183 9.22222 8.38889V15.6111C9.22222 16.3782 8.6004 17 7.83333 17H7.55556C7.24873 17 7 16.7513 7 16.4444C7 16.1376 7.24873 15.8889 7.55556 15.8889H7.83333C7.98675 15.8889 8.11111 15.7645 8.11111 15.6111V8.38889C8.11111 8.23548 7.98675 8.11111 7.83333 8.11111H7.55556C7.24873 8.11111 7 7.86238 7 7.55556C7 7.24873 7.24873 7 7.55556 7H7.83333Z" fill="black" fill-opacity="0.9"/>
<path d="M16.4444 7C16.7512 7 16.9999 7.24886 17 7.55556C16.9999 7.86232 16.7512 8.11111 16.4444 8.11111H16.1667C16.0133 8.11111 15.889 8.2356 15.8889 8.38889V15.6111C15.8889 15.7645 16.0133 15.8889 16.1667 15.8889H16.4444C16.7512 15.8889 16.9999 16.1377 17 16.4444C17 16.7513 16.7513 17 16.4444 17H16.1667C15.3996 17 14.7778 16.3782 14.7778 15.6111V8.38889C14.7779 7.62195 15.3997 7 16.1667 7H16.4444Z" fill="black" fill-opacity="0.9"/>
<path d="M12 9.22222C12.3068 9.22222 12.5556 9.47095 12.5556 9.77778V14.2222C12.5556 14.529 12.3068 14.7778 12 14.7778C11.6932 14.7778 11.4444 14.529 11.4444 14.2222V9.77778C11.4444 9.47095 11.6932 9.22222 12 9.22222Z" fill="black" fill-opacity="0.9"/>
</svg>
