<svg width="24" height="24" viewBox="0 0 24 24" fill="none" xmlns="http://www.w3.org/2000/svg">
<path d="M11.1164 3.38409C11.6045 2.89606 12.3958 2.89606 12.8839 3.38409L20.6164 11.1165C21.1042 11.6047 21.1043 12.396 20.6164 12.8841L12.8839 20.6165L12.7892 20.7024C12.3311 21.0761 11.6693 21.076 11.2111 20.7024L11.1164 20.6165L3.38394 12.8841C2.9264 12.4265 2.89764 11.7022 3.298 11.2112L3.38394 11.1165L11.1164 3.38409ZM12.1769 4.09112C12.0793 3.99361 11.921 3.99361 11.8234 4.09112L4.09097 11.8235C3.99347 11.9211 3.99347 12.0794 4.09097 12.1771L11.8234 19.9095C11.921 20.0068 12.0794 20.0069 12.1769 19.9095L19.9093 12.1771C20.0068 12.0795 20.0066 11.9212 19.9093 11.8235L12.1769 4.09112ZM12.0002 8.5003C12.2762 8.5004 12.5002 8.72422 12.5002 9.0003V11.5003H15.0002C15.2762 11.5004 15.5002 11.7242 15.5002 12.0003C15.5 12.2762 15.2761 12.5002 15.0002 12.5003H12.5002V15.0003C12.5 15.2762 12.2761 15.5002 12.0002 15.5003C11.7241 15.5003 11.5003 15.2763 11.5002 15.0003V12.5003H9.00015C8.7241 12.5003 8.50031 12.2763 8.50015 12.0003C8.50015 11.7242 8.72401 11.5003 9.00015 11.5003H11.5002V9.0003C11.5002 8.72416 11.724 8.5003 12.0002 8.5003Z" fill="black" fill-opacity="0.9"/>
</svg>
