<svg width="24" height="24" viewBox="0 0 24 24" fill="none" xmlns="http://www.w3.org/2000/svg">
<path d="M10.9707 6.45152C11.6041 6.0715 12.3959 6.0715 13.0293 6.45152L17.5146 9.14292C17.8157 9.32368 18 9.64919 18 10.0003C17.9999 10.3514 17.8157 10.6771 17.5146 10.8578L15.6104 11.9994L17.5146 13.1429C17.8156 13.3237 18 13.6492 18 14.0003C17.9998 14.3514 17.8156 14.6771 17.5146 14.8578L13.0293 17.5492C12.396 17.929 11.604 17.929 10.9707 17.5492L6.48535 14.8578C6.18436 14.6771 6.00016 14.3514 6 14.0003C6 13.6492 6.18435 13.3237 6.48535 13.1429L8.38867 12.0003L6.48535 10.8578C6.18432 10.6771 6.00011 10.3514 6 10.0003C6 9.64919 6.18431 9.32368 6.48535 9.14292L10.9707 6.45152ZM12.3926 11.2464C12.1003 11.1217 11.7625 11.1427 11.4854 11.3089L7 14.0003L11.4854 16.6918C11.8019 16.8816 12.1981 16.8816 12.5146 16.6918L17 14.0003L13.666 12.0003V11.9994L12.5146 11.3089L12.3926 11.2464ZM12.3926 7.24644C12.1003 7.1217 11.7625 7.14266 11.4854 7.30894L7 10.0003L9.36035 11.4164L10.9707 10.4515C11.6041 10.0715 12.3959 10.0715 13.0293 10.4515L14.6377 11.4164L17 10.0003L12.5146 7.30894L12.3926 7.24644Z" fill="white" fill-opacity="0.9"/>
</svg>
