<svg width="24" height="24" viewBox="0 0 24 24" fill="none" xmlns="http://www.w3.org/2000/svg">
<path d="M11.1165 5.88379C11.6046 5.39576 12.3959 5.39576 12.884 5.88379L18.1165 11.1162C18.6043 11.6044 18.6044 12.3957 18.1165 12.8838L12.884 18.1162L12.7893 18.2021C12.3312 18.5758 11.6694 18.5757 11.2112 18.2021L11.1165 18.1162L5.88403 12.8838C5.4265 12.4262 5.39774 11.7019 5.7981 11.2109L5.88403 11.1162L11.1165 5.88379ZM12.177 6.59082C12.0794 6.49332 11.9211 6.49331 11.8235 6.59082L6.59106 11.8232C6.49356 11.9208 6.49356 12.0791 6.59106 12.1768L11.8235 17.4092C11.9211 17.5065 12.0795 17.5066 12.177 17.4092L17.4094 12.1768C17.5069 12.0792 17.5067 11.9209 17.4094 11.8232L12.177 6.59082Z" fill="black" fill-opacity="0.9"/>
</svg>
