<svg width="24" height="24" viewBox="0 0 24 24" fill="none" xmlns="http://www.w3.org/2000/svg">
<path d="M11.1162 5.8836C11.6043 5.39557 12.3957 5.39557 12.8838 5.8836L18.1162 11.116C18.6041 11.6042 18.6042 12.3955 18.1162 12.8836L12.8838 18.116L12.7891 18.202C12.3309 18.5755 11.6691 18.5755 11.2109 18.202L11.1162 18.116L7.85352 14.8533C7.53857 14.5384 7.76163 13.9998 8.20703 13.9998C8.33957 13.9999 8.46683 14.0526 8.56055 14.1463L11.8232 17.409C11.9208 17.5063 12.0792 17.5062 12.1768 17.409L17.4092 12.1766C17.5066 12.079 17.5065 11.9207 17.4092 11.8231L12.1768 6.59063C12.0792 6.49313 11.9209 6.49313 11.8232 6.59063L8.56055 9.85333C8.46683 9.94705 8.33957 9.99977 8.20703 9.99981C7.76163 9.99981 7.53857 9.46124 7.85352 9.1463L11.1162 5.8836Z" fill="black" fill-opacity="0.9"/>
<path fill-rule="evenodd" clip-rule="evenodd" d="M12 9.99981C13.1046 9.99981 14 10.8952 14 11.9998C14 13.1044 13.1046 13.9998 12 13.9998C11.0683 13.9998 10.2877 13.3621 10.0654 12.4998H6C5.72386 12.4998 5.5 12.276 5.5 11.9998C5.5 11.7237 5.72386 11.4998 6 11.4998H10.0654C10.2877 10.6375 11.0683 9.99981 12 9.99981ZM12 10.9998C11.4477 10.9998 11 11.4475 11 11.9998C11 12.5521 11.4477 12.9998 12 12.9998C12.5523 12.9998 13 12.5521 13 11.9998C13 11.4475 12.5523 10.9998 12 10.9998Z" fill="black" fill-opacity="0.9"/>
</svg>
