<svg width="24" height="24" viewBox="0 0 24 24" fill="none" xmlns="http://www.w3.org/2000/svg">
<path d="M10.9707 6.45166C11.6041 6.07164 12.3959 6.07164 13.0293 6.45166L17.5146 9.14307C17.8157 9.32382 18 9.64931 18 10.0005C17.9999 10.3516 17.8157 10.6772 17.5146 10.8579L15.6104 11.9995L17.5146 13.1431C17.8156 13.3238 18 13.6494 18 14.0005C17.9998 14.3515 17.8156 14.6772 17.5146 14.8579L13.0293 17.5493C12.396 17.9292 11.604 17.9292 10.9707 17.5493L6.48535 14.8579C6.18436 14.6772 6.00016 14.3515 6 14.0005C6 13.6494 6.18435 13.3238 6.48535 13.1431L8.38867 12.0005L6.48535 10.8579C6.18428 10.6772 6.00006 10.3516 6 10.0005C6 9.64931 6.18428 9.32382 6.48535 9.14307L10.9707 6.45166ZM12.3926 11.2466C12.1003 11.1218 11.7625 11.1428 11.4854 11.3091L7 14.0005L11.4854 16.6919C11.8019 16.8817 12.1981 16.8817 12.5146 16.6919L17 14.0005L13.666 12.0005V11.9995L12.5146 11.3091L12.3926 11.2466ZM12.3926 7.24658C12.1003 7.12184 11.7625 7.1428 11.4854 7.30908L7 10.0005L9.36035 11.4165L10.9707 10.4517C11.6041 10.0716 12.3959 10.0716 13.0293 10.4517L14.6377 11.4165L17 10.0005L12.5146 7.30908L12.3926 7.24658Z" fill="black" fill-opacity="0.9"/>
</svg>
