<svg width="24" height="24" viewBox="0 0 24 24" fill="none" xmlns="http://www.w3.org/2000/svg">
<path d="M11.1163 5.88384C11.6044 5.39582 12.3957 5.39581 12.8839 5.88384L18.1163 11.1163C18.6041 11.6044 18.6043 12.3958 18.1163 12.8838L12.8839 18.1163L12.7892 18.2022C12.331 18.5758 11.6692 18.5757 11.211 18.2022L11.1163 18.1163L5.88388 12.8838C5.42634 12.4262 5.39758 11.7019 5.79794 11.211L5.88388 11.1163L11.1163 5.88384ZM12.1768 6.59088C12.0792 6.49337 11.9209 6.49337 11.8233 6.59088L6.59091 11.8233C6.49341 11.9209 6.4934 12.0792 6.59091 12.1768L11.8233 17.4092C11.921 17.5066 12.0793 17.5067 12.1768 17.4092L17.4093 12.1768C17.5067 12.0793 17.5066 11.9209 17.4093 11.8233L12.1768 6.59088Z" fill="black" fill-opacity="0.9"/>
</svg>
