<svg width="24" height="24" viewBox="0 0 24 24" fill="none" xmlns="http://www.w3.org/2000/svg">
<path d="M5.51337 9C5.78188 9 6.03088 9.21752 6.13544 9.46484C6.1796 9.56931 6.23764 9.68939 6.31219 9.82422C6.55301 10.2596 6.92578 10.7634 7.43329 11.2393C8.44103 12.184 9.95464 12.9999 11.9997 13C14.0448 13 15.5583 12.184 16.5661 11.2393C17.0736 10.7634 17.4464 10.2596 17.6872 9.82422C17.7587 9.69489 17.8147 9.57897 17.8581 9.47754C17.9667 9.22367 18.2236 9 18.4997 9C18.7757 9 18.9946 9.22465 18.9167 9.48926C18.715 10.1715 18.1458 11.1394 17.2106 12.0039L18.3532 13.1465C18.5485 13.3417 18.5485 13.6583 18.3532 13.8535C18.1579 14.0487 17.8414 14.0487 17.6462 13.8535L16.4274 12.6348C15.8837 13.0163 15.254 13.3499 14.5378 13.5918L14.985 15.3789C15.0519 15.6467 14.8886 15.9184 14.6208 15.9854C14.353 16.052 14.0813 15.8888 14.0143 15.6211L13.571 13.8486C13.0804 13.9449 12.5568 14 11.9997 14C11.4422 14 10.9183 13.945 10.4274 13.8486L9.98504 15.6211C9.91806 15.8889 9.6464 16.0522 9.3786 15.9854C9.11094 15.9183 8.94758 15.6466 9.01434 15.3789L9.46063 13.5908C8.7445 13.3488 8.11367 13.0173 7.57001 12.6357L6.35321 13.8535C6.15794 14.0487 5.8414 14.0487 5.64618 13.8535C5.45108 13.6583 5.45108 13.3417 5.64618 13.1465L6.78876 12.0029C5.67032 10.9689 5.07555 9.78784 5.00653 9.12402C5.00282 9.05672 5.05634 9.00011 5.12372 9H5.51337Z" fill="white" fill-opacity="0.9"/>
</svg>
