<svg width="24" height="24" viewBox="0 0 24 24" fill="none" xmlns="http://www.w3.org/2000/svg">
<path fill-rule="evenodd" clip-rule="evenodd" d="M11.2622 4.80566C11.6698 4.39814 12.3305 4.39809 12.738 4.80566L19.1945 11.262C19.6018 11.6696 19.6019 12.3304 19.1945 12.7379L12.738 19.1943L12.6589 19.266C12.2764 19.578 11.7239 19.5779 11.3412 19.266L11.2622 19.1943L4.80574 12.7379C4.42363 12.3558 4.39966 11.7511 4.73398 11.3411L4.80574 11.262L11.2622 4.80566ZM12.1477 5.39601C12.0662 5.31452 11.934 5.31457 11.8525 5.39601L5.39609 11.8524C5.31465 11.9339 5.3146 12.0661 5.39609 12.1476L11.8525 18.6039C11.934 18.6852 12.0662 18.6853 12.1477 18.6039L18.6041 12.1476C18.6855 12.0661 18.6854 11.9339 18.6041 11.8524L12.1477 5.39601Z" fill="white" fill-opacity="0.9"/>
</svg>
