<svg width="24" height="24" viewBox="0 0 24 24" fill="none" xmlns="http://www.w3.org/2000/svg">
<path d="M17.0417 6.5C17.2948 6.5 17.5 6.7052 17.5 6.95833V9.25C17.5 9.50313 17.2948 9.70833 17.0417 9.70833C16.7885 9.70833 16.5833 9.50313 16.5833 9.25V7.41667H12.4583V16.5833H14.2917C14.5448 16.5833 14.75 16.7885 14.75 17.0417C14.75 17.2948 14.5448 17.5 14.2917 17.5H9.70833C9.4552 17.5 9.25 17.2948 9.25 17.0417C9.25 16.7885 9.4552 16.5833 9.70833 16.5833H11.5417V7.41667H7.41667V9.25C7.41667 9.50313 7.21146 9.70833 6.95833 9.70833C6.7052 9.70833 6.5 9.50313 6.5 9.25V6.95833C6.5 6.7052 6.7052 6.5 6.95833 6.5H17.0417Z" fill="white" fill-opacity="0.9"/>
</svg>
