<svg width="24" height="24" viewBox="0 0 24 24" fill="none" xmlns="http://www.w3.org/2000/svg">
<path fill-rule="evenodd" clip-rule="evenodd" d="M16.2217 5.77734C17.3261 5.77734 18.2214 6.67297 18.2217 7.77734V16.2217C18.2217 17.3262 17.3262 18.2217 16.2217 18.2217H7.77734L7.57324 18.2119C6.56475 18.1095 5.77734 17.2572 5.77734 16.2217V7.77734C5.77756 6.74202 6.56489 5.89051 7.57324 5.78809L7.77734 5.77734H16.2217ZM7.77734 6.77734C7.2254 6.77758 6.77758 7.2254 6.77734 7.77734V16.2217C6.77734 16.7738 7.22526 17.2214 7.77734 17.2217H16.2217C16.774 17.2217 17.2217 16.774 17.2217 16.2217V7.77734C17.2214 7.22526 16.7738 6.77734 16.2217 6.77734H7.77734Z" fill="white" fill-opacity="0.9"/>
<path fill-rule="evenodd" clip-rule="evenodd" d="M16 4C18.2091 4 20 5.79086 20 8V16C20 18.2091 18.2091 20 16 20H8C5.79086 20 4 18.2091 4 16V8C4 5.79086 5.79086 4 8 4H16ZM7.77734 5.77734C6.67312 5.77758 5.77758 6.67312 5.77734 7.77734V16.2227C5.77758 17.3269 6.67312 18.2224 7.77734 18.2227H16.2227C17.3269 18.2224 18.2224 17.3269 18.2227 16.2227V7.77734C18.2224 6.67312 17.3269 5.77758 16.2227 5.77734H7.77734Z" fill="white" fill-opacity="0.3"/>
</svg>
