<svg width="24" height="24" viewBox="0 0 24 24" fill="none" xmlns="http://www.w3.org/2000/svg">
<path d="M11.1164 3.38365C11.6046 2.89559 12.3959 2.89552 12.884 3.38365L20.6164 11.1161C21.1042 11.6042 21.1044 12.3956 20.6164 12.8836L12.884 20.6161L12.7893 20.702C12.3311 21.0757 11.6694 21.0755 11.2111 20.702L11.1164 20.6161L3.38398 12.8836C2.92636 12.426 2.89766 11.7018 3.29804 11.2108L3.38398 11.1161L11.1164 3.38365ZM12.177 4.09068C12.0794 3.99308 11.9211 3.99314 11.8234 4.09068L4.09101 11.8231C3.99348 11.9207 3.99341 12.079 4.09101 12.1766L11.8234 19.909C11.9211 20.0064 12.0794 20.0065 12.177 19.909L19.9094 12.1766C20.0068 12.0791 20.0067 11.9207 19.9094 11.8231L12.177 4.09068Z" fill="white" fill-opacity="0.9"/>
</svg>
