<svg width="24" height="24" viewBox="0 0 24 24" fill="none" xmlns="http://www.w3.org/2000/svg">
<path d="M7.5 9C7.77614 9 8 9.22386 8 9.5C8 9.77614 7.77614 10 7.5 10H7V17H7.5C7.77614 17 8 17.2239 8 17.5C8 17.7761 7.77614 18 7.5 18H5.5C5.22386 18 5 17.7761 5 17.5C5 17.2239 5.22386 17 5.5 17H6V10H5.5C5.22386 10 5 9.77614 5 9.5C5 9.22386 5.22386 9 5.5 9H7.5ZM9.5 16C9.74171 16 9.94371 16.1714 9.99023 16.3994L10.0098 16.6006C10.0497 16.7961 10.2039 16.9503 10.3994 16.9902L10.6006 17.0098C10.8286 17.0563 11 17.2583 11 17.5C11 17.7761 10.7761 18 10.5 18C9.72334 18 9.08461 17.4097 9.00781 16.6533L9 16.5C9 16.2239 9.22386 16 9.5 16ZM14.5 17C14.7761 17 15 17.2239 15 17.5C15 17.7761 14.7761 18 14.5 18H12.5C12.2239 18 12 17.7761 12 17.5C12 17.2239 12.2239 17 12.5 17H14.5ZM17.5 16C17.7761 16 18 16.2239 18 16.5L17.9922 16.6533C17.9205 17.3593 17.3593 17.9205 16.6533 17.9922L16.5 18C16.2239 18 16 17.7761 16 17.5C16 17.2583 16.1714 17.0563 16.3994 17.0098L16.6006 16.9902C16.7961 16.9503 16.9503 16.7961 16.9902 16.6006L17.0098 16.3994C17.0563 16.1714 17.2583 16 17.5 16ZM9.5 12C9.77614 12 10 12.2239 10 12.5V14.5C10 14.7761 9.77614 15 9.5 15C9.22386 15 9 14.7761 9 14.5V12.5C9 12.2239 9.22386 12 9.5 12ZM17.5 12C17.7761 12 18 12.2239 18 12.5V14.5C18 14.7761 17.7761 15 17.5 15C17.2239 15 17 14.7761 17 14.5V12.5C17 12.2239 17.2239 12 17.5 12ZM10.5 9C10.7761 9 11 9.22386 11 9.5C11 9.74171 10.8286 9.94371 10.6006 9.99023L10.3994 10.0098C10.2039 10.0497 10.0497 10.2039 10.0098 10.3994L9.99023 10.6006C9.94371 10.8286 9.74171 11 9.5 11C9.22386 11 9 10.7761 9 10.5C9 9.67157 9.67157 9 10.5 9ZM16.6533 9.00781C17.4097 9.08461 18 9.72334 18 10.5C18 10.7761 17.7761 11 17.5 11C17.2583 11 17.0563 10.8286 17.0098 10.6006L16.9902 10.3994C16.9503 10.2039 16.7961 10.0497 16.6006 10.0098L16.3994 9.99023C16.1714 9.94371 16 9.74171 16 9.5C16 9.22386 16.2239 9 16.5 9L16.6533 9.00781ZM14.5 9C14.7761 9 15 9.22386 15 9.5C15 9.77614 14.7761 10 14.5 10H12.5C12.2239 10 12 9.77614 12 9.5C12 9.22386 12.2239 9 12.5 9H14.5ZM17.5 5C17.7761 5 18 5.22386 18 5.5V7.5C18 7.77614 17.7761 8 17.5 8C17.2239 8 17 7.77614 17 7.5V7H10V7.5C10 7.77614 9.77614 8 9.5 8C9.22386 8 9 7.77614 9 7.5V5.5C9 5.22386 9.22386 5 9.5 5C9.77614 5 10 5.22386 10 5.5V6H17V5.5C17 5.22386 17.2239 5 17.5 5Z" fill="white" fill-opacity="0.9"/>
</svg>
