<svg width="24" height="24" viewBox="0 0 24 24" fill="none" xmlns="http://www.w3.org/2000/svg">
<path d="M12.0001 9.07754C12.2306 9.07762 12.4176 9.2645 12.4176 9.49503V11.5825H14.505C14.7355 11.5826 14.9225 11.7694 14.9225 12C14.9224 12.2304 14.7354 12.4174 14.505 12.4174H12.4176V14.5049C12.4174 14.7353 12.2305 14.9223 12.0001 14.9224C11.7696 14.9224 11.5827 14.7353 11.5826 14.5049V12.4174H9.49513C9.26464 12.4174 9.07777 12.2304 9.07764 12C9.07764 11.7694 9.26456 11.5825 9.49513 11.5825H11.5826V9.49503C11.5826 9.26445 11.7695 9.07754 12.0001 9.07754Z" fill="white" fill-opacity="0.9"/>
<path fill-rule="evenodd" clip-rule="evenodd" d="M11.2621 4.80562C11.6697 4.39813 12.3304 4.39813 12.738 4.80562L19.1945 11.262C19.6018 11.6696 19.6019 12.3304 19.1945 12.7379L12.738 19.1943L12.6589 19.266C12.2764 19.578 11.7238 19.5779 11.3412 19.266L11.2621 19.1943L4.8057 12.7379C4.42367 12.3558 4.39965 11.751 4.73394 11.3411L4.8057 11.262L11.2621 4.80562ZM12.1477 5.39597C12.0662 5.31456 11.934 5.31456 11.8525 5.39597L5.39606 11.8524C5.31464 11.9339 5.31464 12.066 5.39606 12.1475L11.8525 18.6039C11.934 18.6852 12.0662 18.6853 12.1477 18.6039L18.6041 12.1475C18.6855 12.0661 18.6854 11.9339 18.6041 11.8524L12.1477 5.39597Z" fill="white" fill-opacity="0.9"/>
</svg>
